<svg xmlns="http://www.w3.org/2000/svg" viewBox="0 0 512 512">
  <!-- Hémisphère gauche -->
  <path d="
    M 200 310
    C 175 310 155 295 148 272
    C 138 265 130 252 130 237
    C 130 222 138 210 150 203
    C 150 185 160 170 175 163
    C 175 148 185 136 200 132
    C 210 128 220 128 230 132
    C 238 120 252 114 265 116
    L 265 310
    Z
  " fill="black"/>
  <!-- Hémisphère droit -->
  <path d="
    M 312 310
    C 337 310 357 295 364 272
    C 374 265 382 252 382 237
    C 382 222 374 210 362 203
    C 362 185 352 170 337 163
    C 337 148 327 136 312 132
    C 302 128 292 128 282 132
    C 274 120 260 114 247 116
    L 247 310
    Z
  " fill="black"/>
  <!-- Base / tronc cérébral -->
  <path d="M 220 310 C 220 330 230 342 256 345 C 282 342 292 330 292 310" fill="black"/>
  <!-- Sillon central -->
  <line x1="256" y1="116" x2="256" y2="310" stroke="white" stroke-width="4"/>
  <!-- Circonvolutions gauche -->
  <path d="M 175 175 C 165 185 162 200 168 212" stroke="white" stroke-width="5" fill="none" stroke-linecap="round"/>
  <path d="M 155 220 C 150 235 155 250 165 258" stroke="white" stroke-width="5" fill="none" stroke-linecap="round"/>
  <path d="M 165 270 C 162 282 168 295 180 300" stroke="white" stroke-width="5" fill="none" stroke-linecap="round"/>
  <path d="M 200 148 C 192 158 190 172 196 182" stroke="white" stroke-width="5" fill="none" stroke-linecap="round"/>
  <path d="M 215 132 C 210 145 212 160 220 168" stroke="white" stroke-width="4" fill="none" stroke-linecap="round"/>
  <path d="M 195 210 C 185 222 185 238 192 248" stroke="white" stroke-width="5" fill="none" stroke-linecap="round"/>
  <path d="M 198 268 C 190 278 190 292 198 300" stroke="white" stroke-width="4" fill="none" stroke-linecap="round"/>
  <!-- Circonvolutions droite -->
  <path d="M 337 175 C 347 185 350 200 344 212" stroke="white" stroke-width="5" fill="none" stroke-linecap="round"/>
  <path d="M 357 220 C 362 235 357 250 347 258" stroke="white" stroke-width="5" fill="none" stroke-linecap="round"/>
  <path d="M 347 270 C 350 282 344 295 332 300" stroke="white" stroke-width="5" fill="none" stroke-linecap="round"/>
  <path d="M 312 148 C 320 158 322 172 316 182" stroke="white" stroke-width="5" fill="none" stroke-linecap="round"/>
  <path d="M 297 132 C 302 145 300 160 292 168" stroke="white" stroke-width="4" fill="none" stroke-linecap="round"/>
  <path d="M 317 210 C 327 222 327 238 320 248" stroke="white" stroke-width="5" fill="none" stroke-linecap="round"/>
  <path d="M 314 268 C 322 278 322 292 314 300" stroke="white" stroke-width="4" fill="none" stroke-linecap="round"/>
</svg>
